<svg xmlns="http://www.w3.org/2000/svg" version="1.1" xmlns:xlink="http://www.w3.org/1999/xlink" xmlns:svgjs="http://svgjs.dev/svgjs" width="2000" height="1247" viewBox="0 0 2000 1247"><g transform="matrix(1,0,0,1,-1.2121212121212466,0.504858299595071)"><svg viewBox="0 0 396 247" data-background-color="#ffffff" preserveAspectRatio="xMidYMid meet" height="1247" width="2000" xmlns="http://www.w3.org/2000/svg" xmlns:xlink="http://www.w3.org/1999/xlink"><g id="tight-bounds" transform="matrix(1,0,0,1,0.2400000000000091,-0.09999999999999432)"><svg viewBox="0 0 395.52 247.2" height="247.2" width="395.52"><g><svg></svg></g><g><svg viewBox="0 0 395.52 247.2" height="247.2" width="395.52"><g transform="matrix(1,0,0,1,100.60864680851064,47.215199999999996)"><svg viewBox="0 0 194.3027063829787 152.7696" height="152.7696" width="194.3027063829787"><g><svg viewBox="0 0 194.3027063829787 152.7696" height="152.7696" width="194.3027063829787"><g><svg viewBox="0 0 194.3027063829787 152.7696" height="152.7696" width="194.3027063829787"><g><svg viewBox="0 0 194.3027063829787 152.7696" height="152.7696" width="194.3027063829787"><g><svg viewBox="0 0 194.3027063829787 152.7696" height="152.7696" width="194.3027063829787"><g><svg viewBox="0 0 194.3027063829787 152.7696" height="152.7696" width="194.3027063829787"><g transform="matrix(1,0,0,1,0,0)"><svg width="194.3027063829787" viewBox="1.9499999999999997 -35.8 53.8 42.3" height="152.7696" data-palette-color="#ba3b0a"><path d="M34.2-23.85L34.2-23.85Q34.2-23.45 33.18-23.45 32.15-23.45 31.13-24.48 30.1-25.5 30.1-26.98 30.1-28.45 31-29.65L31-29.65Q32.9-32.25 37.35-33.35L37.35-33.35Q40.55-34.15 43.75-34.15L43.75-34.15 44.15-34.15Q44.6-34.15 46.6-34L46.6-34Q46.5-34.65 47.13-35.23 47.75-35.8 48.55-35.8L48.55-35.8Q50.05-35.8 50-33.65L50-33.65Q55.4-32.7 55.7-30.75L55.7-30.75Q55.75-30.3 55.75-30L55.75-30Q55.75-29 55.18-29 54.6-29 54.8-30.2L54.8-30.2Q53.55-32.05 49.85-32.8L49.85-32.8Q48.95-28.75 40.45-15.2L40.45-15.2Q34.8-6.3 27.3-0.3L27.3-0.3Q18.7 6.5 11.1 6.5L11.1 6.5Q6.45 6.5 4.2 4.15 1.95 1.8 1.95-1.07 1.95-3.95 3.05-6L3.05-6Q5.7-11.1 10.7-13.95L10.7-13.95Q14.4-16.1 17.55-16.1L17.55-16.1Q20.95-16.1 22.88-14.45 24.8-12.8 24.8-10.3L24.8-10.3Q24.8-7.6 22.8-5.4L22.8-5.4Q21.55-4 20.8-4L20.8-4Q20.6-4 20.6-4.17 20.6-4.35 20.75-4.65L20.75-4.65Q22.55-7.3 22.55-9.58 22.55-11.85 21.3-13.3L21.3-13.3Q19.85-14.85 17.38-14.85 14.9-14.85 11.85-12.85L11.85-12.85Q8.1-10.4 5.7-5.5L5.7-5.5Q4.45-3.05 4.45-0.43 4.45 2.2 6.4 3.83 8.35 5.45 11.65 5.45L11.65 5.45Q24.35 5.45 38.2-16.85L38.2-16.85Q46.5-30.15 46.7-33.15L46.7-33.15Q43.7-33.3 43.55-33.3L43.55-33.3Q41.2-33.3 37.52-32 33.85-30.7 32.75-28.8L32.75-28.8Q32.3-28.05 32.3-27.15 32.3-26.25 33.25-25.15 34.2-24.05 34.2-23.85Z" opacity="1" transform="matrix(1,0,0,1,0,0)" fill="#ba3b0a" class="undefined-text-0" data-fill-palette-color="primary" id="text-0"></path></svg></g></svg></g></svg></g></svg></g></svg></g></svg></g></svg></g><g><path d="M220.751 0c68.262 0 123.6 55.338 123.6 123.6 0 68.262-55.338 123.6-123.6 123.6-30.402 0-58.24-10.976-79.768-29.183h11.147c19.26 14.022 42.974 22.294 68.621 22.295 25.647 0 49.361-8.272 68.621-22.295h8.997l0-7.254c23.988-21.376 39.094-52.505 39.094-87.163 0-34.658-15.107-65.787-39.094-87.163v-7.254l-8.997 0c-19.26-14.022-42.974-22.294-68.621-22.295-25.647 0-49.361 8.272-68.621 22.295l-11.147 0c21.528-18.206 49.366-29.183 79.768-29.183z" fill="#9c4242" stroke="transparent" data-fill-palette-color="tertiary"></path></g></svg></g><defs></defs></svg><rect width="395.52" height="247.2" fill="none" stroke="none" visibility="hidden"></rect></g></svg></g></svg>